<?xml version="1.0" encoding="utf-8"?>
<!-- Generator: Adobe Illustrator 16.0.4, SVG Export Plug-In . SVG Version: 6.00 Build 0)  -->
<!DOCTYPE svg PUBLIC "-//W3C//DTD SVG 1.1//EN" "http://www.w3.org/Graphics/SVG/1.1/DTD/svg11.dtd">
<svg version="1.1" id="Layer_1" xmlns="http://www.w3.org/2000/svg" xmlns:xlink="http://www.w3.org/1999/xlink" x="0px" y="0px"
	 width="815.471px" height="217.601px" viewBox="0 0 815.471 217.601" enable-background="new 0 0 815.471 217.601"
	 xml:space="preserve">
<g>
	<defs>
		<rect id="SVGID_1_" width="815.471" height="217.601"/>
	</defs>
	<clipPath id="SVGID_2_">
		<use xlink:href="#SVGID_1_"  overflow="visible"/>
	</clipPath>
	<path clip-path="url(#SVGID_2_)" fill="#FFFFFF" d="M139.955,20.238c-0.29,1.729-0.866,3.168-1.152,4.896
		c-0.286,2.014,0,3.167-0.286,5.183c-0.285,2.3-1.443,3.453-1.729,5.467c-0.287,2.305,0,3.743,0.286,6.048
		c0.291,2.587,0.576,4.315,1.158,7.193c0.285,2.595,2.299,4.32,1.433,6.909c-0.576,2.016-2.015,3.167-4.03,4.321
		c-1.437,0.575-2.877,1.152-4.606,0.575c-1.728-0.289-2.59-1.729-3.743-3.167c-1.438-1.729-2.3-3.166-3.167-5.467
		c-0.571-1.729,0-3.171-0.571-4.896c-0.577-1.724-1.443-2.591-2.305-4.029c-0.862-1.729-2.015-2.596-3.168-4.03
		c-1.152-1.443-1.152-3.172-2.876-4.61c-1.152-0.576-2.02-0.861-3.167-1.439c-2.306-0.861-3.458-2.013-5.473-3.166
		c-4.892-2.591-8.349-3.454-13.817-4.605c-3.743-0.862-6.335-1.439-10.078-1.439c-2.3,0-3.742,0.291-5.758,0.291
		c-2.3,0-4.029-0.291-6.329,0.286c-1.439,0.575-2.305,1.152-3.744,2.013c-1.152,0.576-2.015,1.153-3.458,1.729
		c-1.438,0.577-2.876,0.577-4.606,1.438c-1.728,0.864-2.877,2.016-4.028,4.031c-1.153,2.014-1.153,3.743-1.439,5.757
		c-0.291,3.453,1.153,5.467,0.576,8.635c-0.29,1.442-0.576,2.305-1.151,3.743c-0.863,1.73-2.592,2.306-3.168,4.32
		c-1.152,2.301-0.863,4.03-0.863,6.33c0.286,2.882,1.153,4.319,1.725,6.915c0.576,1.725,1.443,2.877,1.443,4.605
		c0.286,2.015,0.286,3.163,0,5.179c0,2.304-0.867,4.032-0.576,6.334c0.285,2.306,1.723,3.457,2.014,5.472
		c0.286,1.439,0.286,2.591,0.863,3.739c1.152,2.014,3.743,2.014,6.048,2.305c2.591,0.291,4.32-0.291,6.906-0.291
		c2.59-0.285,4.32-0.285,6.911-0.572c2.876-0.576,5.181-0.29,7.772-1.442c2.306-1.148,3.453-2.591,5.182-4.32
		c1.443-1.724,2.015-2.877,3.458-4.315c2.3-2.591,3.449-5.759,6.907-5.759c2.589,0,4.605,0.863,6.043,3.168
		c1.438,2.3,0.867,4.321,0.867,7.197c0,4.895-1.443,7.486-2.02,12.379c-0.285,5.471-1.147,9.211,0,14.397
		c0.577,1.729,1.444,2.591,1.444,4.314c0,1.729-0.867,2.306-0.867,4.034c-0.286,2.302,0.867,3.452,0.867,5.753
		c0,2.307,0.861,4.034-0.577,5.759c-0.867,0.862-2.305,1.443-3.743,1.443c-2.301,0-3.744-1.443-5.759-2.883
		c-2.591-1.729-4.028-3.452-6.043-6.043c-2.02-2.59-2.591-5.183-4.606-7.772c-2.881-3.166-5.472-5.182-9.502-7.197
		c-3.453-1.729-5.758-3.167-10.078-3.167c-2.015,0-3.452,0-5.758,0.861c-2.3,0.863-4.606,1.439-5.753,3.744
		c-0.867,2.015-0.291,3.744-0.291,5.759c0,4.028,0.862,6.334,0,10.072c-0.285,1.73-0.862,2.881-1.438,4.32
		c-0.576,1.725-1.439,2.591-1.728,4.029c-0.577,2.305,0,4.028,0,6.044c0,2.019,0,3.458-0.863,5.473
		c-0.286,1.438-1.438,2.014-1.438,3.453c0,2.014,1.724,2.881,2.59,4.605c1.153,2.305,2.015,4.029,2.301,6.623
		c0,2.306-1.148,3.454-1.148,5.762v4.026c0,2.877,0,4.892,0.572,7.774c0.576,2.306,0.867,4.028,2.014,6.044
		c0.867,2.014,1.443,3.455,2.882,5.182c2.3,3.458,6.043,3.742,8.058,7.487c1.158,1.724,2.306,3.166,2.015,5.181
		c-0.285,1.726-1.724,3.167-3.453,3.738c-1.438,0.582-2.591,0-4.32,0h-7.768c-5.763,0-9.21,0.582-14.974-0.284
		c-2.586-0.287-4.029-1.729-6.906-1.729c-2.014-0.287-3.458,0-5.472,0.291c-2.014,0.289-3.167,1.438-5.183,1.722
		c-2.876,0.582-4.605,0-7.195,0c-3.167,0-5.759,2.014-8.059,0c-1.152-0.862-2.015-2.013-2.015-3.446
		c-0.291-2.307,0.863-3.749,2.3-5.473c1.44-1.44,3.453-1.44,5.183-2.878c0.867-0.867,1.438-1.729,2.013-2.881
		c2.302-3.167,3.746-5.183,5.473-8.635c1.148-2.014,2.591-3.166,2.591-5.474c0-1.438-0.861-2.013-1.152-3.452
		c-1.439-5.758-0.291-9.502-0.577-15.55c-0.29-6.044-1.728-9.783-1.147-15.542c0.285-4.604,1.433-7.484,2.585-12.092
		c0.577-3.743,2.016-6.044,2.016-10.074c0-3.167-0.572-5.181-1.439-8.062c-0.577-2.876-2.305-4.605-2.59-7.773
		c0-2.88,0.861-4.605,1.152-7.485c0.291-3.74,0.576-6.336,0.861-9.785c0-3.456-0.285-5.762,0.291-9.214
		c0.572-2.882,2.302-4.321,2.878-7.488c0.29-2.3,0.29-3.743,0.29-6.044c0-2.876,0-4.892-0.29-7.482
		c-0.292-4.61-0.863-7.202-1.439-11.516c-0.577-3.743-1.153-6.044-1.439-9.501c-0.291-3.168,0.286-5.473-0.861-8.927
		c-0.582-2.875-1.73-4.605-3.457-7.196c-1.73-2.3-3.458-3.453-5.759-5.182c-1.438-1.437-2.877-1.728-4.029-3.452
		c-1.154-1.437-2.591-2.596-2.016-4.61c0.577-2.877,4.315-1.726,7.197-2.015c4.029-0.862,6.621-0.286,10.94,0
		c6.044,0,9.497,0.575,15.255,0.575c4.897,0,7.778-0.861,12.383,0c2.877,0.577,4.606,1.44,7.483,2.305
		c2.3,0.288,3.743,1.149,5.758,1.439c3.743,0,5.759-1.724,9.501-2.304c3.453-0.286,5.467,0,8.922-0.286
		c3.457-0.292,5.472-1.154,8.925-1.154c3.166,0,5.182,0.577,8.064,0.862c2.876,0,4.604,0.292,7.481,0.292
		c3.458,0,5.473-0.292,8.925-0.292c3.167-0.285,5.182,0,8.349-0.57c4.32-0.292,6.912-2.882,11.517-2.882
		c2.304,0.29,4.605,0,6.334,1.437c1.729,1.445,2.014,3.173,2.3,5.474C140.817,17.362,140.246,18.509,139.955,20.238"/>
	<path clip-path="url(#SVGID_2_)" fill="#FFFFFF" d="M359.309,143.169c-0.863,2.586-2.306,4.028-3.453,6.329
		c-2.305,4.319-4.03,6.62-5.472,11.231c-0.286,1.435,0,2.877-1.149,3.739c-0.29,0.576-1.153,0.866-1.729,1.153
		c-1.439,1.149-1.729,2.875-2.877,4.604c-3.458,5.472-5.471,8.634-9.792,13.529c-6.335,7.203-11.225,10.649-19.289,16.124
		c-7.197,4.891-11.802,7.48-19.574,11.224c-5.183,2.022-8.636,4.32-14.103,5.183c-6.049,1.152-9.793-0.285-15.836-0.285
		c-5.182,0-8.64,0.285-13.821,0.574c-2.015,0.293-3.453,0.863-5.468,0.863c-4.315,0.291-7.196,0.291-11.516-0.863
		c-1.439-0.289-2.592-1.151-4.03-1.437c-2.59-0.291-4.32,0.572-6.91,0.572c-4.607-0.287-7.483-0.863-11.803-2.302
		c-4.315-1.15-6.911-2.306-10.649-4.605c-4.034-2.305-6.048-4.605-9.501-7.486c-2.016-2.016-3.453-3.166-6.044-5.184
		c-1.729-1.146-3.169-2.012-4.896-3.452c-3.168-2.882-3.168-6.334-5.469-9.787c-1.442-2.015-2.305-3.457-4.033-5.472
		c-2.592-3.167-5.758-4.029-8.634-7.483c-1.731-2.591-2.593-4.604-4.321-7.196c-2.014-3.172-2.875-5.186-4.606-8.349
		c-2.876-4.896-6.906-7.486-7.771-13.531c-0.577-2.013-0.287-3.458-0.577-5.759c0-3.743,0-6.333-0.287-10.363
		c0-3.742,0-6.334-0.285-10.077c-0.291-3.453-0.867-5.757-1.157-9.211c-0.286-3.167-0.572-5.182-0.286-8.349
		c0.286-2.881,1.152-4.605,1.728-7.481c0.864-2.593,1.439-4.611,2.3-7.203c1.153-3.453,2.02-5.467,3.459-8.635
		c1.438-2.881,2.014-4.895,3.739-7.772c0.576-1.729,1.443-2.876,2.304-4.319c1.439-2.301,2.016-4.03,3.744-6.336
		c0.862-0.86,2.016-1.437,2.591-2.877c0.867-1.727,0-3.167,0.577-4.89c0.861-2.305,3.167-3.172,4.605-5.187
		c2.591-2.591,3.744-4.891,6.621-6.905c1.727-1.154,2.875-1.729,4.605-2.882c3.453-2.591,4.896-5.182,8.349-7.483
		c3.744-2.881,6.91-3.743,11.231-5.757c3.162-1.439,4.891-2.597,8.058-3.744c3.168-1.153,5.467-2.015,8.925-2.881
		c3.167-0.578,5.182-0.578,8.349-1.439c3.167-0.862,4.891-2.3,8.344-2.877c3.744-0.576,6.336,0,10.365,0
		c3.747,0,6.048-0.576,9.792-0.576c4.029-0.29,6.62-0.862,10.653-0.862c3.449,0,5.469,0.285,8.922,0.285
		c3.453,0.287,5.467,0.577,8.925,1.153c7.482,1.44,11.801,4.03,18.713,7.197c4.028,2.014,6.62,3.168,10.073,5.468
		c4.897,3.172,7.778,5.757,11.806,10.363c2.591,2.881,3.453,5.182,6.045,8.063c2.881,3.453,4.896,5.467,8.059,8.35
		c2.305,2.305,4.318,3.452,6.334,6.044c1.729,2.014,2.305,3.743,3.743,5.758c4.029,6.62,7.196,9.791,10.364,16.697
		c1.152,2.878,1.723,3.454,2.882,7.483c0.571,2.881,1.147,4.605,1.147,7.487c-0.286,2.877-1.147,4.606-1.439,7.197
		c-0.575,2.59-1.438,4.319-1.152,7.196c0.285,2.881,2.015,4.319,2.591,7.202c0.582,3.452,0,5.753,0,9.211v8.35
		C361.037,135.393,361.037,138.559,359.309,143.169 M321.596,116.393c-0.861-2.02-2.589-3.167-3.453-5.182
		c-1.151-2.591-1.728-4.319-1.151-6.91c0.284-1.152,0.862-1.724,1.151-2.877c0.287-2.014-0.867-3.453-0.867-5.182
		c0-2.59,0.287-4.32,0.287-6.619c0.291-2.883,0.58-4.896,1.444-7.778c0.862-2.3,2.304-3.452,2.589-5.469
		c0.287-2.591-0.285-4.32-1.438-6.619c-1.151-2.591-2.595-4.319-4.896-6.048c-2.015-1.439-3.743-1.726-5.757-2.878
		c-3.168-2.014-5.182-3.457-7.774-6.333c-2.876-3.169-3.452-6.044-6.335-9.504c-2.585-3.452-4.89-5.181-8.058-8.057
		c-2.304-2.015-3.742-3.167-5.758-5.182c-2.59-1.729-4.319-2.591-6.619-4.897c-2.015-2.299-2.015-5.177-4.606-6.905
		c-2.882-2.015-5.759-1.729-9.502-2.015c-6.62-1.158-10.94-1.158-17.852,0c-4.028,0.572-6.619,1.148-10.363,2.876
		c-3.742,1.439-6.044,2.883-9.211,4.897c-4.314,2.591-6.043,5.182-10.078,8.059c-1.147,0.575-2.299,1.152-3.452,2.014
		c-1.725,1.729-1.725,3.458-3.168,5.182c-1.438,2.305-3.453,3.453-4.891,5.472c-2.014,2.301-3.167,4.03-4.32,6.62
		c-2.591,4.606-2.876,7.773-4.892,12.955c-0.58,2.015-0.865,3.457-2.014,5.759c-1.444,3.167-3.172,5.181-4.901,8.058
		c-1.433,2.59-3.163,4.029-4.03,6.91c-0.86,2.305-1.723,4.03-1.146,6.625c0.57,1.724,1.728,2.877,2.876,4.03
		c1.153,1.438,2.882,1.724,3.743,3.162c1.153,2.02,0.573,4.035,0.573,6.335c0,3.743-1.434,6.049-1.725,10.078
		c-0.291,4.891-0.576,8.058,0,12.954c0.576,4.604,2.305,7.195,2.591,11.802c0.291,4.029-0.577,6.621-0.286,10.653
		c0,4.893,0.286,8.06,2.014,12.666c1.725,4.318,3.739,6.625,6.335,10.653c1.439,2.301,2.3,4.029,4.03,6.044
		c3.166,3.744,6.043,5.181,10.364,7.197c2.59,1.438,4.315,2.305,7.196,2.876c1.728,0.576,3.167,0.29,4.606,0.866
		c1.438,0.578,2.014,1.44,2.881,2.016c2.877,2.013,4.89,3.166,8.349,3.743c3.162,0.577,5.177-0.577,8.349-0.289
		c3.163,0,5.181,0.289,8.058,1.442c2.301,0.863,3.454,2.589,5.757,3.162c3.455,0.866,6.045-0.573,9.498-1.438
		c3.171-0.86,5.187-1.724,8.063-2.877c2.878-1.151,4.607-1.73,7.198-2.881c5.181-2.3,8.058-4.031,12.667-7.197
		c4.892-3.453,8.059-5.758,11.803-10.072c2.876-3.167,4.896-5.184,6.911-8.927c2.591-5.185,2.3-9.215,3.454-14.969
		c1.152-5.182,0.575-8.64,2.303-13.822c0.578-2.59,2.015-3.737,2.878-6.334c1.152-4.028,1.728-6.62,1.728-10.936
		C322.749,120.708,322.459,118.985,321.596,116.393"/>
	<path clip-path="url(#SVGID_2_)" fill="#FFFFFF" d="M559.653,159.864c-1.153,2.3-2.878,2.88-4.316,4.605
		c-1.442,1.729-2.305,2.595-3.167,4.319c-1.438,2.881-0.866,4.896-1.152,8.06c-0.575,5.18-0.575,8.348,0,13.53
		c0.286,2.882,1.152,4.609,1.439,7.199c0,2.303,1.152,4.029,0,5.753c-1.439,2.308-3.744,2.017-6.044,2.592
		c-2.592,0.576-4.03,0.576-6.621,1.151c-5.473,0.864-8.926,2.593-14.682,3.46c-2.878,0.57-4.607,1.148-7.778,1.148
		c-2.587,0-4.316-0.287-6.907-0.287c-2.306,0-3.743-0.291-6.044,0.287c-1.727,0.284-2.59,1.152-4.318,1.728
		c-3.739,1.438-6.336,2.015-10.364,2.302h-6.62c-5.182,0-8.636,0.864-13.821,0.864c-6.044,0.293-9.788,1.154-15.546,0
		c-2.301-0.289-3.744-0.864-6.045-1.437c-3.166-0.576-5.181-1.159-8.349-2.305c-2.591-1.152-4.32-2.59-6.91-4.029
		c-4.029-2.307-6.62-3.458-10.649-5.758c-2.305-1.44-4.32-2.308-6.335-4.32c-1.151-1.149-1.728-2.306-2.877-3.454
		c-1.729-2.013-3.166-2.881-5.182-4.313c-2.59-2.306-4.32-3.459-6.62-5.764c-2.305-2.015-3.743-3.453-5.472-5.468
		c-2.014-2.306-3.458-4.028-5.182-6.62c-2.591-4.031-4.896-6.91-6.044-11.805c-0.291-1.154-0.291-2.303-0.577-3.454
		c-0.575-2.593-1.728-3.744-2.59-6.044c-0.867-2.016-1.438-3.744-2.306-5.759c-0.862-2.877-2.014-4.606-2.876-7.487
		c-0.576-3.166-0.576-5.466-0.576-8.636v-5.182c0-3.166,0-5.467-0.286-8.639c-0.291-2.877-1.157-4.606-1.443-7.483
		c-0.286-3.457-0.572-5.757,0-8.925c0.286-2.591,0.862-4.03,1.443-6.33c0.571-3.456,1.147-5.471,2.3-8.638
		c0.576-1.44,1.149-2.306,1.438-3.745c1.153-3.452-0.289-6.042,0.868-9.786c0.285-1.439,1.148-2.592,1.724-4.321
		c0.867-2.014,0.576-4.028,1.438-6.044c1.152-2.014,2.591-3.167,4.03-4.896c1.442-2.014,2.304-3.453,3.457-5.467
		c1.438-2.305,2.015-4.03,3.739-6.049c0.867-1.148,1.729-1.723,2.596-2.586c2.014-2.305,3.167-3.744,5.182-6.048
		c1.729-1.729,2.876-2.878,4.314-4.321c2.305-1.724,3.744-2.876,6.336-4.606c3.166-2.299,5.181-3.451,8.638-5.467
		c4.03-2.59,6.62-4.61,11.228-6.334c3.743-1.725,6.333-2.014,10.363-2.882c2.877-0.571,4.892-0.571,7.195-1.438
		c2.302-1.147,3.168-3.166,5.474-3.739c2.014-0.576,3.453,0,5.467,0c2.877,0,4.891-0.576,7.772-0.576
		c8.927-0.576,13.817-0.576,22.743,0c3.166,0,5.474,0.286,8.926,0.576c4.896,0.573,7.771,1.438,12.663,2.878
		c4.319,1.437,6.333,3.456,10.655,5.181c1.729,0.576,2.88,1.152,4.605,1.724c2.304,0.867,3.742,1.729,5.757,2.596
		c4.035,1.438,6.621,1.724,10.364,3.452c2.59,1.153,4.896,1.153,6.625,3.168c0.861,1.438,1.147,2.591,1.725,4.32
		c0.861,3.453,0,5.753,0,8.925c0,4.32,0.575,6.62,0.575,10.94c0,4.029-0.575,6.62-0.862,10.649c-0.29,2.592,0,4.321-0.576,6.912
		c-0.29,1.728,0,3.743-1.729,4.605c-2.015,1.154-4.029-0.292-6.044-1.444c-2.015-1.147-2.88-2.59-4.319-4.318
		c-2.306-2.586-4.605-4.031-6.334-7.193c-1.439-2.305-1.439-4.318-2.593-6.911c-0.861-1.728-1.725-2.877-2.875-4.605
		c-1.152-1.729-2.307-2.591-3.169-4.315c-0.866-1.443-0.284-2.887-1.438-4.32c-1.442-1.443-3.744-0.866-5.762-1.728
		c-1.149-0.287-2.016-0.868-3.163-1.444c-2.881-1.148-4.604-2.014-7.196-3.163c-2.015-0.576-3.168-1.151-5.182-1.727
		c-4.611-1.44-7.774-1.154-12.669-1.73c-2.591-0.571-4.321-1.148-7.197-1.438c-2.591-0.577-4.604-0.286-7.197-0.863
		c-2.881-0.291-4.319-1.152-6.909-1.728c-2.307-0.577-3.738-1.439-6.045-1.148c-2.015,0.286-3.166,1.148-5.182,1.724
		c-1.438,0.576-2.591,0.861-4.32,1.438c-2.877,1.153-4.895,2.591-7.482,4.029c-2.018,1.154-3.456,2.306-5.472,3.744
		c-2.306,1.438-3.452,3.168-5.758,4.32c-0.862,0.575-2.015,0.862-2.877,1.439c-1.438,1.152-2.014,2.595-2.882,4.027
		c-1.728,2.883-2.014,4.898-3.452,7.488c-1.153,2.305-1.439,4.03-3.168,5.759c-0.861,1.152-2.3,1.439-2.876,2.59
		c-0.867,1.724,0.285,3.454,0,5.468c-0.29,2.305-1.442,3.458-1.729,5.757c-0.577,2.02-0.577,3.459-1.153,5.474
		c-0.576,1.438-1.151,2.3-1.728,3.739c-0.863,1.729-2.017,2.591-2.594,4.033c-0.574,1.149-0.86,2.015-1.146,3.163
		c-0.291,2.014,0,3.172,0.285,5.187c0.286,1.437,0.86,2.59,1.151,4.029c0.286,2.305,0.286,4.03,0.286,6.335
		c0.29,2.589,0.29,4.314,0.578,7.196c0,3.743-1.155,6.049,0,9.496c0.289,1.444,1.438,2.307,1.438,3.743
		c0,1.73-1.438,2.883-2.017,4.606c-0.286,2.306-0.861,4.036,0,6.048c0.578,1.148,1.439,1.439,2.017,2.301
		c0.864,1.729,0,3.458,0.289,5.473c0.287,2.306,0.862,3.739,1.148,6.044c0.29,2.306,0,4.029,0.576,6.334
		c0.581,2.017,1.153,3.454,1.729,5.474c0.577,1.724,1.152,3.162,2.016,4.892c0.576,2.3,1.441,3.742,2.305,5.757
		c1.724,3.167,3.167,4.896,4.896,7.482c1.438,2.019,2.301,3.457,4.028,5.184c3.453,3.167,6.329,3.742,10.364,5.756
		c5.181,2.306,8.348,3.172,13.816,4.605c7.195,2.016,11.802,2.883,19.29,3.746c4.318,0.289,6.91,0.575,11.226,0.575
		c7.772,0,14.106,2.013,20.154-3.167c2.016-2.016,3.163-3.744,4.605-6.044c1.439-2.593,2.302-4.32,3.163-6.911
		c1.153-3.167,1.729-5.183,1.729-8.349c0.285-3.162-0.576-5.468-1.439-8.635c-0.576-2.878-0.29-5.473-2.304-7.486
		c-1.44-1.439-2.878-1.726-4.894-2.592c-2.88-1.148-5.181-0.863-8.638-1.725c-1.725-0.29-3.165-0.29-4.605-1.439
		c-1.438-1.151-2.592-2.59-2.592-4.604c0.29-2.021,1.729-3.458,3.743-4.32c2.591-1.151,7.488-0.576,12.092-0.576
		c4.606,0,7.197,0,11.518,0.291c3.739,0,5.753,0.572,9.497,0.572c2.305,0,3.743-0.287,6.048-0.287
		c4.892-0.285,7.769-0.285,12.956-0.285c3.744,0,6.335-0.581,10.072,0.285c1.729,0.576,3.168,0.576,4.319,1.729
		c1.725,2.301,0,4.892,0,7.768C560.515,155.543,560.805,157.558,559.653,159.864"/>
	<path clip-path="url(#SVGID_2_)" fill="#FFFFFF" d="M787.931,143.169c-0.866,2.586-2.304,4.028-3.458,6.329
		c-2.301,4.319-4.029,6.62-5.472,11.231c-0.286,1.435,0,2.877-1.146,3.739c-0.293,0.576-1.154,0.866-1.73,1.153
		c-1.438,1.149-1.73,2.875-2.879,4.604c-3.457,5.472-5.472,8.634-9.791,13.529c-6.334,7.203-11.225,10.649-19.284,16.124
		c-7.2,4.891-11.807,7.48-19.579,11.224c-5.184,2.022-8.637,4.32-14.103,5.183c-6.049,1.152-9.793-0.285-15.838-0.285
		c-5.18,0-8.633,0.285-13.814,0.574c-2.021,0.293-3.459,0.863-5.474,0.863c-4.314,0.291-7.195,0.291-11.517-0.863
		c-1.433-0.289-2.59-1.151-4.029-1.437c-2.59-0.291-4.318,0.572-6.91,0.572c-4.606-0.287-7.481-0.863-11.802-2.302
		c-4.314-1.15-6.907-2.306-10.65-4.605c-4.032-2.305-6.05-4.605-9.5-7.486c-2.015-2.016-3.454-3.166-6.046-5.184
		c-1.728-1.146-3.172-2.012-4.896-3.452c-3.166-2.882-3.166-6.334-5.467-9.787c-1.444-2.015-2.306-3.457-4.035-5.472
		c-2.586-3.167-5.753-4.029-8.635-7.483c-1.729-2.591-2.59-4.604-4.319-7.196c-2.014-3.172-2.877-5.186-4.604-8.349
		c-2.877-4.896-6.906-7.486-7.774-13.531c-0.575-2.013-0.285-3.458-0.575-5.759c0-3.743,0-6.333-0.286-10.363
		c0-3.742,0-6.334-0.287-10.077c-0.29-3.453-0.865-5.757-1.15-9.211c-0.291-3.167-0.577-5.182-0.291-8.349
		c0.291-2.881,1.151-4.605,1.729-7.481c0.861-2.593,1.438-4.611,2.301-7.203c1.153-3.453,2.02-5.467,3.458-8.635
		c1.438-2.881,2.015-4.895,3.738-7.772c0.582-1.729,1.442-2.876,2.305-4.319c1.438-2.301,2.015-4.03,3.743-6.336
		c0.867-0.86,2.015-1.437,2.593-2.877c0.861-1.727,0-3.167,0.575-4.89c0.863-2.305,3.167-3.172,4.605-5.187
		c2.592-2.591,3.743-4.891,6.621-6.905c1.728-1.154,2.881-1.729,4.605-2.882c3.458-2.591,4.895-5.182,8.35-7.483
		c3.743-2.881,6.909-3.743,11.229-5.757c3.162-1.439,4.892-2.597,8.06-3.744c3.167-1.153,5.468-2.015,8.925-2.881
		c3.168-0.578,5.181-0.578,8.349-1.439c3.167-0.862,4.892-2.3,8.35-2.877c3.738-0.576,6.334,0,10.362,0
		c3.739,0,6.044-0.576,9.788-0.576c4.028-0.29,6.62-0.862,10.653-0.862c3.453,0,5.469,0.285,8.922,0.285
		c3.453,0.287,5.467,0.577,8.925,1.153c7.487,1.44,11.802,4.03,18.713,7.197c4.03,2.014,6.625,3.168,10.073,5.468
		c4.896,3.172,7.776,5.757,11.806,10.363c2.593,2.881,3.454,5.182,6.044,8.063c2.883,3.453,4.896,5.467,8.059,8.35
		c2.306,2.305,4.32,3.452,6.335,6.044c1.728,2.014,2.306,3.743,3.745,5.758c4.034,6.62,7.195,9.791,10.368,16.697
		c1.147,2.878,1.725,3.454,2.876,7.483c0.571,2.881,1.148,4.605,1.148,7.487c-0.287,2.877-1.148,4.606-1.439,7.197
		c-0.571,2.59-1.438,4.319-1.152,7.196c0.292,2.881,2.015,4.319,2.592,7.202c0.58,3.452,0,5.753,0,9.211v8.35
		C789.654,135.393,789.654,138.559,787.931,143.169 M750.217,116.393c-0.863-2.02-2.594-3.167-3.455-5.182
		c-1.153-2.591-1.729-4.319-1.153-6.91c0.288-1.152,0.862-1.724,1.153-2.877c0.287-2.014-0.865-3.453-0.865-5.182
		c0-2.59,0.289-4.32,0.289-6.619c0.285-2.883,0.576-4.896,1.438-7.778c0.864-2.3,2.301-3.452,2.594-5.469
		c0.283-2.591-0.293-4.32-1.44-6.619c-1.153-2.591-2.591-4.319-4.896-6.048c-2.016-1.439-3.74-1.726-5.754-2.878
		c-3.172-2.014-5.187-3.457-7.777-6.333c-2.877-3.169-3.453-6.044-6.334-9.504c-2.587-3.452-4.893-5.181-8.061-8.057
		c-2.305-2.015-3.737-3.167-5.757-5.182c-2.592-1.729-4.314-2.591-6.62-4.897c-2.015-2.299-2.015-5.177-4.605-6.905
		c-2.881-2.015-5.758-1.729-9.501-2.015c-6.621-1.158-10.941-1.158-17.847,0c-4.034,0.572-6.625,1.148-10.368,2.876
		c-3.744,1.439-6.044,2.883-9.211,4.897c-4.315,2.591-6.045,5.182-10.077,8.059c-1.149,0.575-2.301,1.152-3.45,2.014
		c-1.728,1.729-1.728,3.458-3.172,5.182c-1.438,2.305-3.451,3.453-4.892,5.472c-2.014,2.301-3.165,4.03-4.318,6.62
		c-2.591,4.606-2.878,7.773-4.893,12.955c-0.575,2.015-0.865,3.457-2.014,5.759c-1.443,3.167-3.172,5.181-4.896,8.058
		c-1.439,2.59-3.167,4.029-4.03,6.91c-0.866,2.305-1.729,4.03-1.152,6.625c0.572,1.724,1.729,2.877,2.876,4.03
		c1.154,1.438,2.882,1.724,3.745,3.162c1.153,2.02,0.576,4.035,0.576,6.335c0,3.743-1.439,6.049-1.724,10.078
		c-0.291,4.891-0.581,8.058,0,12.954c0.57,4.604,2.301,7.195,2.587,11.802c0.289,4.029-0.572,6.621-0.286,10.653
		c0,4.893,0.286,8.06,2.015,12.666c1.729,4.318,3.742,6.625,6.334,10.653c1.439,2.301,2.299,4.029,4.028,6.044
		c3.168,3.744,6.044,5.181,10.365,7.197c2.591,1.438,4.318,2.305,7.195,2.876c1.73,0.576,3.166,0.29,4.605,0.866
		c1.438,0.578,2.015,1.44,2.882,2.016c2.877,2.013,4.892,3.166,8.35,3.743c3.162,0.577,5.177-0.577,8.349-0.289
		c3.162,0,5.177,0.289,8.059,1.442c2.3,0.863,3.452,2.589,5.757,3.162c3.458,0.866,6.045-0.573,9.502-1.438
		c3.168-0.86,5.183-1.724,8.06-2.877c2.877-1.151,4.604-1.73,7.197-2.881c5.181-2.3,8.062-4.031,12.668-7.197
		c4.892-3.453,8.059-5.758,11.803-10.072c2.877-3.167,4.896-5.184,6.91-8.927c2.59-5.185,2.3-9.215,3.453-14.969
		c1.151-5.182,0.575-8.64,2.305-13.822c0.575-2.59,2.015-3.737,2.876-6.334c1.153-4.028,1.729-6.62,1.729-10.936
		C751.366,120.708,751.076,118.985,750.217,116.393"/>
	<path clip-path="url(#SVGID_2_)" fill="#FFFFFF" d="M798.414,0c22.743,0,22.743,34.144,0,34.144
		C775.668,34.144,775.668,0,798.414,0 M798.414,1.836c-20.329,0-20.329,30.476,0,30.476C818.746,32.312,818.746,1.836,798.414,1.836
		 M807.396,26.417c-0.581,0-0.966-0.049-1.544-0.049c-0.582,0-0.919,0-1.498,0.098h-0.337l-7.486-9.659l0.098-0.436l0.915,0.049
		c2.465,0.099,5.266-1.593,5.025-4.104c-0.146-1.788-0.969-3.187-3.044-3.476c-1.306-0.241-3.046,0.048-3.525,0.143l-0.388,0.146
		v15.018c0,0.387,0.052,0.677,0.339,1.015c0.388,0.436,1.16,0.387,1.497,0.387l0.676,0.096v0.772h-0.436
		c-0.338,0-2.076-0.143-3.33-0.143c-1.307,0-2.9,0.143-3.382,0.143h-0.482v-0.819l0.771-0.049c0.338,0,1.016,0,1.354-0.387
		c0.292-0.289,0.387-0.628,0.387-1.015V10.094c0-0.774-0.051-0.87-0.338-1.206c-0.291-0.387-1.645-0.387-1.835-0.387h-0.339V7.68
		h0.482c0.289,0,2.075,0.096,3.382,0.144c1.931,0,4.731-0.095,5.019-0.144h0.438c1.834-0.097,4.394,0.532,5.216,2.656
		c0.822,2.222-0.193,4.296-2.221,5.65c-0.921,0.579-2.222,0.87-2.558,0.966l-0.195,0.049l6.036,7.917
		c0.05,0.098,0.385,0.391,0.675,0.533c0.148,0.098,0.58,0.194,0.725,0.194h0.146v0.821L807.396,26.417z"/>
</g>
</svg>
