<?xml version="1.0" encoding="utf-8"?>
<!-- Generator: Adobe Illustrator 16.0.4, SVG Export Plug-In . SVG Version: 6.00 Build 0)  -->
<!DOCTYPE svg PUBLIC "-//W3C//DTD SVG 1.1//EN" "https://www.w3.org/Graphics/SVG/1.1/DTD/svg11.dtd">
<svg version="1.1" id="Layer_1" xmlns="https://www.w3.org/2000/svg" xmlns:xlink="https://www.w3.org/1999/xlink" x="0px" y="0px"
	 width="82.8px" height="82.801px" viewBox="0 0 82.8 82.801" enable-background="new 0 0 82.8 82.801" xml:space="preserve">
<rect y="0.001" fill="#EE2A24" width="82.8" height="82.799"/>
<rect width="82.8" height="58.952"/>
<g>
	<defs>
		<rect id="SVGID_1_" y="0.001" width="82.8" height="82.8"/>
	</defs>
	<clipPath id="SVGID_2_">
		<use xlink:href="#SVGID_1_"  overflow="visible"/>
	</clipPath>
	<path clip-path="url(#SVGID_2_)" fill="#FFFFFF" d="M14.869,69.339h1.376c2.503,0,2.903-0.325,2.903-2.403h0.726v5.932h-0.726
		c0-2.103-0.4-2.402-2.903-2.402h-1.376v3.729c0,2.502,0.326,2.928,2.403,2.928v0.727H9.362v-0.727c2.077,0,2.378-0.426,2.378-2.928
		v-7.708c0-2.503-0.301-2.928-2.378-2.928v-0.726h13.289l0.226,3.527h-0.752l-0.124-0.5c-0.326-1.326-0.601-1.901-2.878-1.901
		h-4.255V69.339z"/>
	<path clip-path="url(#SVGID_2_)" fill="#FFFFFF" d="M31.135,78.272c-4.58,0-8.334-3.579-8.334-7.933
		c0-4.354,3.754-7.934,8.334-7.934c4.605,0,8.359,3.579,8.359,7.934C39.494,74.693,35.74,78.272,31.135,78.272 M31.135,63.607
		c-3.529,0-4.98,3.704-4.98,6.732c0,3.027,1.451,6.731,4.98,6.731c3.553,0,4.98-3.704,4.98-6.731
		C36.115,67.312,34.688,63.607,31.135,63.607"/>
	<path clip-path="url(#SVGID_2_)" fill="#FFFFFF" d="M49.653,72.366v-0.725h7.383v0.725c-2.077,0-2.377,0.401-2.377,2.904v1.701
		c-2.954,0-4.005,1.301-6.508,1.301c-4.229,0-7.683-3.578-7.683-7.934c0-4.354,3.455-7.933,7.683-7.933
		c1.752,0,3.379,0.776,4.655,2.127c0.325-0.25,0.501-0.801,0.65-1.426h0.7v5.505h-0.725c-0.676-3.253-2.703-5.005-5.18-5.005
		c-3.43,0-4.405,3.629-4.405,6.731c0,3.104,0.976,6.732,4.405,6.732c1.95,0,3.753-0.801,3.753-3.103
		C52.006,72.893,51.381,72.366,49.653,72.366"/>
	<path clip-path="url(#SVGID_2_)" fill="#FFFFFF" d="M65.945,78.272c-4.58,0-8.333-3.579-8.333-7.933
		c0-4.354,3.753-7.934,8.333-7.934c4.604,0,8.357,3.579,8.357,7.934C74.303,74.693,70.55,78.272,65.945,78.272 M65.945,63.607
		c-3.529,0-4.981,3.704-4.981,6.732c0,3.027,1.452,6.731,4.981,6.731c3.553,0,4.979-3.704,4.979-6.731
		C70.925,67.312,69.498,63.607,65.945,63.607"/>
	<path clip-path="url(#SVGID_2_)" fill="#FFFFFF" d="M12.481,9.804c0-0.808-0.135-1.415-0.607-1.887l-2.02-1.954
		C9.718,5.761,9.382,5.559,9.382,5.356c0-0.202,0.134-0.404,0.404-0.404h8.422c7.007,0,10.645,4.312,10.645,12.464
		c0,7.748-2.358,10.376-4.986,11.993c2.628,1.347,5.121,4.178,5.121,11.656c0,9.77-3.099,14.418-8.624,14.418H9.786
		c-0.27,0-0.404-0.202-0.404-0.404c0-0.201,0.336-0.337,0.472-0.606l2.02-1.954c0.472-0.471,0.607-1.078,0.607-1.886V9.804z
		 M17.669,28.129h1.011c3.301,0,4.716-2.628,4.716-10.713c0-6.872-1.415-9.095-4.716-9.095h-1.011V28.129z M17.669,52.114h2.088
		c2.965,0,3.639-2.425,3.639-11.521c0-6.602-1.415-9.095-4.716-9.095h-1.011V52.114z"/>
	<path clip-path="url(#SVGID_2_)" fill="#FFFFFF" d="M42.126,44.231c-0.067-0.337-0.27-0.605-0.606-0.605h-4.986
		c-0.202,0-0.337,0.202-0.404,0.471l-1.011,7.412c-0.067,0.471,0.067,0.876,0.337,1.212l1.482,1.55
		c0.27,0.337,0.674,0.607,0.674,0.81s-0.135,0.403-0.472,0.403h-7.748c-0.269,0-0.404-0.201-0.404-0.403s0.269-0.473,0.471-0.674
		l1.887-1.888c0.404-0.403,0.472-1.078,0.539-1.684l6.131-45.276c0.068-0.337,0.202-0.607,0.539-0.607h2.493
		c0.337,0,0.539,0.338,0.605,0.741l6.401,45.209c0.068,0.674,0.27,1.414,0.741,1.818l1.954,1.752
		c0.201,0.202,0.403,0.405,0.403,0.607s-0.134,0.403-0.472,0.403H40.98c-0.337,0-0.472-0.201-0.472-0.403s0.27-0.405,0.472-0.607
		l1.819-1.818c0.27-0.27,0.403-0.741,0.337-1.348L42.126,44.231z M41.183,40.055c0.202,0,0.337-0.202,0.269-0.472l-2.357-16.506
		h-0.134l-2.224,16.574c-0.067,0.27,0.067,0.404,0.202,0.404H41.183z"/>
	<path clip-path="url(#SVGID_2_)" fill="#FFFFFF" d="M59.71,50.633c0,0.808,0.134,1.416,0.606,1.887l2.021,1.954
		c0.136,0.202,0.472,0.404,0.472,0.605c0,0.202-0.135,0.404-0.404,0.404H51.827c-0.269,0-0.404-0.202-0.404-0.404
		c0-0.201,0.337-0.403,0.473-0.605l2.021-1.954c0.471-0.471,0.607-1.079,0.607-1.887V9.804c0-0.809-0.137-1.415-0.607-1.886
		l-2.021-1.955c-0.136-0.202-0.473-0.404-0.473-0.606s0.136-0.404,0.404-0.404h8.423c7.006,0,10.645,3.705,10.645,12.464
		c0,7.479-2.628,10.511-4.985,11.993c2.291,1.213,4.312,3.841,4.312,7.546v14.081c0,0.473,0.27,0.876,0.605,1.214l2.156,2.29
		c0.27,0.27,0.538,0.539,0.538,0.741s-0.336,0.202-0.673,0.202h-3.505c-3.098,0-4.311-2.021-4.311-4.311V36.687
		c0-2.965-1.82-5.188-4.177-5.188H59.71V50.633z M59.71,28.129h1.012c3.301,0,4.648-2.628,4.648-10.713
		c0-6.872-1.348-9.095-4.648-9.095H59.71V28.129z"/>
</g>
</svg>
