<?xml version="1.0" encoding="utf-8"?>
<!-- Generator: Adobe Illustrator 18.1.1, SVG Export Plug-In . SVG Version: 6.00 Build 0)  -->
<svg version="1.1" xmlns="http://www.w3.org/2000/svg" xmlns:xlink="http://www.w3.org/1999/xlink" x="0px" y="0px"
	 viewBox="100 199.4 420 420" enable-background="new 100 199.4 420 420" xml:space="preserve">
<g id="Layer_1">
	<path fill="#FFFFFF" d="M310,199.4c-116,0-210,94-210,210s94,210,210,210s210-94,210-210S426,199.4,310,199.4z M310,586.6
		c-97.9,0-177.2-79.3-177.2-177.2S212.1,232.3,310,232.3s177.2,79.3,177.2,177.2S407.9,586.6,310,586.6z"/>
	<path display="none" fill="#FFFFFF" d="M310,304.4c-58,0-105,47-105,105s47,105,105,105s105-47,105-105S368,304.4,310,304.4z
		 M356.4,437.3l-18.5,18.5L310,428l-27.8,27.8l-18.5-18.5l27.8-27.8l-27.8-27.8l18.5-18.5l27.8,27.8l27.8-27.8l18.5,18.5l-27.8,27.8
		L356.4,437.3z"/>
	<circle fill="#FFFFFF" cx="310" cy="409.4" r="105"/>
</g>
<g id="Layer_2">
</g>
</svg>
